<svg width="24" height="24" viewBox="0 0 24 24" fill="none" xmlns="http://www.w3.org/2000/svg">
<path fill-rule="evenodd" clip-rule="evenodd" d="M6.87628 15.3281C6.03579 14.4381 5.17275 13.2617 4.3051 11.7333C5.84544 9.24651 7.31359 7.72797 8.6645 6.88646C10.0711 6.01022 11.3805 5.84695 12.6239 6.12203C13.4665 6.30844 14.3118 6.70419 15.154 7.27163L16.6133 5.8513C15.5136 5.05876 14.3244 4.44987 13.0559 4.16925C11.2887 3.77829 9.44626 4.04318 7.60704 5.18888C5.79828 6.3156 4.02812 8.26991 2.28935 11.2007L2 11.6884L2.27002 12.1871C3.2929 14.0761 4.35328 15.5741 5.44287 16.7232L6.87628 15.3281ZM8.9177 16.9931L7.44186 18.4295C7.59694 18.5324 7.75248 18.6291 7.90846 18.7198C9.90598 19.8808 11.9034 20.0034 13.7422 19.4642C15.5464 18.9352 17.1532 17.785 18.4813 16.467C19.815 15.1434 20.9174 13.6013 21.7076 12.2029L22.0272 11.6372L21.6402 11.1153C20.7186 9.8726 19.7047 8.63944 18.6106 7.55928L17.177 8.9545C18.0338 9.79679 18.856 10.7626 19.636 11.7792C18.9569 12.885 18.0831 14.0444 17.0725 15.0474C15.8839 16.227 14.5553 17.1416 13.1795 17.545C11.8395 17.9379 10.4138 17.8613 8.9177 16.9931Z" fill="#F7FFF7"/>
<rect width="21.0069" height="1.74528" rx="0.872642" transform="matrix(0.716617 -0.697467 0.716617 0.697467 3.94531 18.7909)" fill="#F7FFF7"/>
<path fill-rule="evenodd" clip-rule="evenodd" d="M10.8125 15.1325C11.1818 15.2597 11.5792 15.3289 11.9932 15.3289C13.9469 15.3289 15.5307 13.7875 15.5307 11.886C15.5307 11.483 15.4596 11.0963 15.3289 10.7369L10.8125 15.1325ZM13.5658 8.80105C13.0921 8.57187 12.5581 8.44299 11.9932 8.44299C10.0395 8.44299 8.45566 9.98447 8.45566 11.886C8.45566 12.4358 8.58807 12.9555 8.82355 13.4165L13.5658 8.80105Z" fill="#F7FFF7"/>
</svg>
