<svg width="24" height="24" viewBox="0 0 24 24" fill="none" xmlns="http://www.w3.org/2000/svg">
<path fill-rule="evenodd" clip-rule="evenodd" d="M8.98418 17.4152C7.51124 16.5426 5.91005 14.8609 4.29405 11.9524C5.86177 9.36703 7.35655 7.78901 8.73172 6.91579C10.1583 6.00992 11.4837 5.8423 12.7413 6.12591C14.0371 6.41814 15.3409 7.20929 16.631 8.36424C17.7703 9.38422 18.8553 10.6485 19.8693 11.998C19.1778 13.1503 18.2851 14.3604 17.2516 15.4059C16.0453 16.6263 14.6979 17.5714 13.304 17.9881C11.9468 18.3937 10.5025 18.3148 8.98418 17.4152ZM21.8715 11.3421C20.7068 9.7411 19.3967 8.15592 17.965 6.87417C16.5387 5.59717 14.9354 4.5705 13.1813 4.17491C11.3889 3.77069 9.52131 4.04525 7.65961 5.22742C5.82981 6.38933 4.03922 8.40436 2.27983 11.4274L2 11.9082L2.26098 12.3995C4.06222 15.7905 5.97784 17.9587 7.96473 19.1359C9.9873 20.3342 12.0123 20.4616 13.8767 19.9043C15.7044 19.358 17.3307 18.1709 18.674 16.8119C20.0233 15.4469 21.1384 13.8567 21.9375 12.4152L22.2465 11.8576L21.8715 11.3421ZM12.1035 15.6667C14.0827 15.6667 15.6872 14.0748 15.6872 12.1111C15.6872 10.1474 14.0827 8.55557 12.1035 8.55557C10.1242 8.55557 8.51972 10.1474 8.51972 12.1111C8.51972 14.0748 10.1242 15.6667 12.1035 15.6667Z" fill="#F7FFF7"/>
</svg>
