<svg width="32" height="32" viewBox="0 0 32 32" fill="none" xmlns="http://www.w3.org/2000/svg">
<path d="M11.7073 28L14.2376 22.459M11.7073 28C14.4624 27.3275 16.7717 26.5832 18.6916 25.787M11.7073 28C7.72781 25.0435 5.76285 22.3225 5.18591 19.9016M23.5806 2L19.6877 10.5246M14.2376 22.459L18.6916 25.787M14.2376 22.459L15.9894 18.623M18.6916 25.787C22.2169 24.3248 24.4289 22.6872 25.6759 20.9957M15.9894 18.623L5.18591 19.9016M15.9894 18.623L17.2546 15.8525M5.18591 19.9016C4.73302 18.0013 5.13547 16.2859 6.09022 14.7869M18.5198 13.082L6.09022 14.7869M18.5198 13.082L17.2546 15.8525M18.5198 13.082L19.6877 10.5246M6.09022 14.7869C8.82885 10.487 16.1118 7.96721 20.7869 7.96721C22.7638 9.35239 24.8098 11.3081 25.9906 13.5082M17.2546 15.8525L25.6759 20.9957M25.6759 20.9957C27.526 18.486 27.2517 15.8578 25.9906 13.5082M19.6877 10.5246L25.9906 13.5082" stroke="#FFE552" stroke-width="2"/>
</svg>
