<svg width="32" height="32" viewBox="0 0 32 32" fill="none" xmlns="http://www.w3.org/2000/svg">
<path d="M15.0489 6.92705C15.3483 6.00574 16.6517 6.00574 16.9511 6.92705L18.4697 11.6008C18.6035 12.0128 18.9875 12.2918 19.4207 12.2918H24.335C25.3037 12.2918 25.7065 13.5314 24.9228 14.1008L20.947 16.9894C20.5966 17.244 20.4499 17.6954 20.5838 18.1074L22.1024 22.7812C22.4017 23.7025 21.3472 24.4686 20.5635 23.8992L16.5878 21.0106C16.2373 20.756 15.7627 20.756 15.4122 21.0106L11.4365 23.8992C10.6528 24.4686 9.59828 23.7025 9.89763 22.7812L11.4162 18.1074C11.5501 17.6954 11.4034 17.244 11.053 16.9894L7.07722 14.1008C6.29351 13.5314 6.69628 12.2918 7.66501 12.2918H12.5793C13.0125 12.2918 13.3965 12.0128 13.5303 11.6008L15.0489 6.92705Z" fill="#F7FFF7"/>
</svg>
