<svg width="32" height="32" viewBox="0 0 32 32" fill="none" xmlns="http://www.w3.org/2000/svg">
<mask id="path-1-inside-1_95_113" fill="white">
<path fill-rule="evenodd" clip-rule="evenodd" d="M5 5C3.89543 5 3 5.89543 3 7V17.8571C3 18.9617 3.89543 19.8571 5 19.8571H19.9091C21.0137 19.8571 21.9091 18.9617 21.9091 17.8571V14.573L27.4825 17.944C28.1489 18.3471 29 17.8673 29 17.0884V7.76877C29 6.98989 28.1489 6.51001 27.4825 6.91311L21.9091 10.2841V7C21.9091 5.89543 21.0137 5 19.9091 5H5Z"/>
</mask>
<path fill-rule="evenodd" clip-rule="evenodd" d="M5 5C3.89543 5 3 5.89543 3 7V17.8571C3 18.9617 3.89543 19.8571 5 19.8571H19.9091C21.0137 19.8571 21.9091 18.9617 21.9091 17.8571V14.573L27.4825 17.944C28.1489 18.3471 29 17.8673 29 17.0884V7.76877C29 6.98989 28.1489 6.51001 27.4825 6.91311L21.9091 10.2841V7C21.9091 5.89543 21.0137 5 19.9091 5H5Z" fill="#F9AB00"/>
<path d="M21.9091 14.573L22.4266 13.7174L20.9091 12.7995V14.573H21.9091ZM27.4825 17.944L28 17.0884L28 17.0884L27.4825 17.944ZM27.4825 6.91311L26.9649 6.05745L26.9649 6.05745L27.4825 6.91311ZM21.9091 10.2841H20.9091V12.0577L22.4266 11.1398L21.9091 10.2841ZM4 7C4 6.44772 4.44772 6 5 6V4C3.34315 4 2 5.34315 2 7H4ZM4 17.8571V7H2V17.8571H4ZM5 18.8571C4.44771 18.8571 4 18.4094 4 17.8571H2C2 19.514 3.34314 20.8571 5 20.8571V18.8571ZM19.9091 18.8571H5V20.8571H19.9091V18.8571ZM20.9091 17.8571C20.9091 18.4094 20.4614 18.8571 19.9091 18.8571V20.8571C21.5659 20.8571 22.9091 19.514 22.9091 17.8571H20.9091ZM20.9091 14.573V17.8571H22.9091V14.573H20.9091ZM21.3916 15.4287L26.9649 18.7997L28 17.0884L22.4266 13.7174L21.3916 15.4287ZM26.9649 18.7997C28.2978 19.6059 30 18.6461 30 17.0884H28L28 17.0884L26.9649 18.7997ZM30 17.0884V7.76877H28V17.0884H30ZM30 7.76877C30 6.21101 28.2978 5.25125 26.9649 6.05745L28 7.76877L28 7.76877H30ZM26.9649 6.05745L21.3916 9.42847L22.4266 11.1398L28 7.76877L26.9649 6.05745ZM20.9091 7V10.2841H22.9091V7H20.9091ZM19.9091 6C20.4614 6 20.9091 6.44771 20.9091 7H22.9091C22.9091 5.34315 21.566 4 19.9091 4V6ZM5 6H19.9091V4H5V6Z" fill="#F9AB00" mask="url(#path-1-inside-1_95_113)"/>
<path d="M16.375 27L12.3333 19.381L8 27" stroke="#F9AB00" stroke-width="2" stroke-linecap="round"/>
</svg>
