<svg width="42" height="42" viewBox="0 0 42 42" fill="none" xmlns="http://www.w3.org/2000/svg">
<path d="M33 17.2083V28C33 29.6569 31.6569 31 30 31H12C10.3431 31 9 29.6569 9 28V14C9 12.3431 10.3431 11 12 11H18.5768C19.3029 11 19.9673 11.4083 20.2954 12.056C20.9641 13.3762 22.3183 14.2083 23.7982 14.2083H30C31.6569 14.2083 33 15.5515 33 17.2083Z" stroke="#F9AB00" stroke-width="2"/>
<path d="M24.127 21.0989C24.8823 21.4622 24.8823 22.5378 24.127 22.9011L18.4336 25.6404C17.7697 25.9598 17 25.476 17 24.7393V19.2607C17 18.524 17.7697 18.0402 18.4336 18.3596L24.127 21.0989Z" fill="#F9AB00"/>
<circle cx="21" cy="2" r="2" fill="#F9AB00"/>
</svg>
