<svg width="40" height="40" viewBox="0 0 40 40" fill="none" xmlns="http://www.w3.org/2000/svg">
<path d="M25.6 13.5C25.6 16.5232 23.1072 19 20 19C16.8927 19 14.4 16.5232 14.4 13.5C14.4 10.4768 16.8927 8 20 8C23.1072 8 25.6 10.4768 25.6 13.5Z" stroke="#F9AB00" stroke-width="2"/>
<path d="M14.7247 19.9167H25.2753C27.3636 19.9167 29.1005 21.5232 29.2632 23.6052L29.8347 30.9221C29.8801 31.5034 29.4207 32 28.8377 32H11.1623C10.5793 32 10.1199 31.5034 10.1653 30.9221L10.7368 23.6052C10.8995 21.5232 12.6364 19.9167 14.7247 19.9167Z" stroke="#F9AB00" stroke-width="2"/>
<circle cx="21" cy="2" r="2" fill="#F9AB00"/>
</svg>
