<svg width="32" height="32" viewBox="0 0 32 32" fill="none" xmlns="http://www.w3.org/2000/svg">
<path d="M6.42752 9.74349L13.4275 5.54349C15.0109 4.59344 16.9891 4.59344 18.5725 5.54349L25.5725 9.74349C27.0785 10.6471 28 12.2746 28 14.031V26C28 27.1046 27.1046 28 26 28H21.5882C20.4837 28 19.5882 27.1046 19.5882 26V22.32C19.5882 21.2154 18.6928 20.32 17.5882 20.32H13.9412C12.8366 20.32 11.9412 21.2154 11.9412 22.32V26C11.9412 27.1046 11.0457 28 9.94118 28H6C4.89543 28 4 27.1046 4 26V14.031C4 12.2746 4.92149 10.6471 6.42752 9.74349Z" fill="#F7FFF7"/>
</svg>
