<svg width="42" height="42" viewBox="0 0 42 42" fill="none" xmlns="http://www.w3.org/2000/svg">
<path d="M10.8017 15.6322L19.8017 8.89682C20.5121 8.36514 21.4879 8.36514 22.1983 8.89682L31.1983 15.6322C31.7029 16.0099 32 16.6032 32 17.2335V33C32 33.5523 31.5523 34 31 34H25.2892C24.7369 34 24.2892 33.5523 24.2892 33V27.6596C24.2892 27.1073 23.8415 26.6596 23.2892 26.6596H18.2794C17.7271 26.6596 17.2794 27.1073 17.2794 27.6596V33C17.2794 33.5523 16.8317 34 16.2794 34H11C10.4477 34 10 33.5523 10 33V17.2335C10 16.6032 10.2971 16.0099 10.8017 15.6322Z" stroke="#F9AB00" stroke-width="2"/>
<circle cx="21" cy="2" r="2" fill="#F9AB00"/>
</svg>
