<svg width="32" height="32" viewBox="0 0 32 32" fill="none" xmlns="http://www.w3.org/2000/svg">
<path d="M16 13V22.5C16 24.1667 16.8 27.8 20 29" stroke="#FFE552" stroke-width="2" stroke-linecap="round"/>
<path d="M12.5 17.5L16 21L10 22.5C10.8333 21.6667 11.8313 20.8875 10.5 20C9 19 7.5 18 5 16.5C7 16.5 8.4 16 6 12C7.5 12.5 10.4 12.8 10 10L13 12.5L12 6.5C13.3333 8 16 9.4 16 3" stroke="#FFE552" stroke-width="2" stroke-linecap="round"/>
<path d="M19.5 17.5L16 21L22 22.5C21.1667 21.6667 20.1687 20.8875 21.5 20C23 19 24.5 18 27 16.5C25 16.5 23.6 16 26 12C24.5 12.5 21.6 12.8 22 10L19 12.5L20 6.5C18.6667 8 16 9.4 16 3" stroke="#FFE552" stroke-width="2" stroke-linecap="round"/>
</svg>
