<svg width="32" height="32" viewBox="0 0 32 32" fill="none" xmlns="http://www.w3.org/2000/svg">
<path d="M21.4286 15.8285C21.4286 18.659 19.0625 21 16.0857 21C13.1089 21 10.7429 18.659 10.7429 15.8285C10.7429 12.9981 13.1089 10.6571 16.0857 10.6571C19.0625 10.6571 21.4286 12.9981 21.4286 15.8285Z" stroke="#F7FFF7" stroke-width="2"/>
<path d="M16.0857 4V9.82857" stroke="#F7FFF7" stroke-width="2" stroke-linecap="round"/>
<path d="M16.0857 22.1714V28" stroke="#F7FFF7" stroke-width="2" stroke-linecap="round"/>
<path d="M19.1661 21.0204L20.8911 24.0082" stroke="#F7FFF7" stroke-width="2" stroke-linecap="round"/>
<path d="M21.5097 12.9789L24.5882 11.4218" stroke="#F7FFF7" stroke-width="2" stroke-linecap="round"/>
<path d="M21.495 18.5747L24.4827 20.2997" stroke="#F7FFF7" stroke-width="2" stroke-linecap="round"/>
<path d="M19.1965 10.5184L21.084 7.63063" stroke="#F7FFF7" stroke-width="2" stroke-linecap="round"/>
<path d="M11.2857 7.51428L13.0107 10.502" stroke="#F7FFF7" stroke-width="2" stroke-linecap="round"/>
<path d="M7.58855 20.1006L10.6671 18.5435" stroke="#F7FFF7" stroke-width="2" stroke-linecap="round"/>
<path d="M7.69407 11.2228L10.6818 12.9477" stroke="#F7FFF7" stroke-width="2" stroke-linecap="round"/>
<path d="M11.0928 23.8918L12.9803 21.004" stroke="#F7FFF7" stroke-width="2" stroke-linecap="round"/>
<path d="M28 15.8286L22.1714 15.8286" stroke="#F7FFF7" stroke-width="2" stroke-linecap="round"/>
<path d="M9.82858 15.8286L4 15.8286" stroke="#F7FFF7" stroke-width="2" stroke-linecap="round"/>
</svg>
